<svg width="50" height="50" viewBox="0 0 50 50" fill="none" xmlns="http://www.w3.org/2000/svg">
<path d="M29.1667 18.7499H43.75C44.8958 18.7499 45.8333 17.8124 45.8333 16.6666C45.8333 15.5208 44.8958 14.5833 43.75 14.5833H29.1667C28.0208 14.5833 27.0833 15.5208 27.0833 16.6666C27.0833 17.8124 28.0208 18.7499 29.1667 18.7499ZM43.75 31.2499H29.1667C28.0208 31.2499 27.0833 32.1874 27.0833 33.3333C27.0833 34.4791 28.0208 35.4166 29.1667 35.4166H43.75C44.8958 35.4166 45.8333 34.4791 45.8333 33.3333C45.8333 32.1874 44.8958 31.2499 43.75 31.2499ZM43.75 22.9166H35.4167C34.2708 22.9166 33.3333 23.8541 33.3333 24.9999C33.3333 26.1458 34.2708 27.0833 35.4167 27.0833H43.75C44.8958 27.0833 45.8333 26.1458 45.8333 24.9999C45.8333 23.8541 44.8958 22.9166 43.75 22.9166ZM18.4375 16.3541C17.7917 15.7083 16.6667 16.1666 16.6667 17.1041V22.9166H6.24999C5.10416 22.9166 4.16666 23.8541 4.16666 24.9999C4.16666 26.1458 5.10416 27.0833 6.24999 27.0833H16.6667V32.8958C16.6667 33.8333 17.7917 34.2916 18.4375 33.6249L26.3333 25.7291C26.75 25.3124 26.75 24.6666 26.3333 24.2499L18.4375 16.3541Z" fill="#131314"/>
</svg>
